<svg width="182" height="29" viewBox="0 0 182 29" fill="none" xmlns="http://www.w3.org/2000/svg">
<path d="M0.648438 20.1281V0.472089H11.2174C14.5714 0.472089 17.2234 2.96809 17.2234 6.16609C17.2234 7.76509 16.5604 9.13009 15.4294 10.1051C16.8724 11.0801 17.7694 12.6401 17.7694 14.4731C17.7694 17.6711 15.1174 20.1281 11.7634 20.1281H0.648438ZM5.13344 16.1501H11.2174C12.5434 16.1501 13.3234 15.3701 13.3234 14.1611C13.3234 12.9131 12.5434 12.1331 11.2174 12.1331H5.13344V16.1501ZM5.13344 8.46709H10.6714C11.9974 8.46709 12.7774 7.68709 12.7774 6.43909C12.7774 5.23009 11.9974 4.45009 10.6714 4.45009H5.13344V8.46709Z" fill="white"/>
<path d="M33.6013 20.1281L27.4783 12.4451H26.0743V20.1281H21.4723V0.472089H26.0743V8.11609H27.5173L33.6013 0.472089H39.3733L31.5343 10.3001L39.3733 20.1281H33.6013Z" fill="white"/>
<path d="M41.6088 28.9031L47.4588 16.9301L39.1908 0.472089H44.2608L49.9158 11.8991L55.4928 0.472089H60.4848L46.6008 28.9031H41.6088Z" fill="white"/>
<path d="M71 20.0781C65.384 20.0781 60.7675 15.9161 60.7675 10.2611C60.7675 4.64509 65.4086 0.0430877 71.0246 0.0430877C75.2366 0.0430877 94.5 0.0689618 99 0.078125V4.10802C97.3846 4.10802 73.4754 4.04823 71 4.07812C67.88 4.07812 65.3696 7.10209 65.3696 10.2611C65.3696 13.4981 67.919 16.0781 71 16.0781C73.457 16.0781 96.5 16.1501 99 16.1501V20.0781C94.5 20.0781 75.212 20.0781 71 20.0781Z" fill="white"/>
<path d="M110.789 20.557C105.134 20.557 100.493 15.916 100.493 10.261C100.493 4.64497 105.134 0.0429688 110.789 0.0429688C116.444 0.0429688 121.124 4.68397 121.124 10.261C121.124 15.916 116.483 20.557 110.789 20.557ZM105.095 10.261C105.095 13.498 107.63 16.15 110.789 16.15C113.909 16.15 116.522 13.498 116.522 10.3C116.522 7.10197 113.909 4.44997 110.789 4.44997C107.669 4.44997 105.095 7.06297 105.095 10.261Z" fill="white"/>
<path d="M124.736 20.128V0.47197H135.305C138.659 0.47197 141.311 2.96797 141.311 6.16597C141.311 7.76497 140.648 9.12997 139.517 10.105C140.96 11.08 141.857 12.64 141.857 14.473C141.857 17.671 139.205 20.128 135.851 20.128H124.736ZM129.221 16.15H135.305C136.631 16.15 137.411 15.37 137.411 14.161C137.411 12.913 136.631 12.133 135.305 12.133H129.221V16.15ZM129.221 8.46697H134.759C136.085 8.46697 136.865 7.68697 136.865 6.43897C136.865 5.22997 136.085 4.44997 134.759 4.44997H129.221V8.46697Z" fill="white"/>
<path d="M154.725 20.518C148.758 20.518 144.312 16.15 144.312 10.3C144.312 4.48897 148.641 0.0429688 154.257 0.0429688C159.795 0.0429688 164.085 4.56697 164.085 10.105C164.085 10.651 164.007 11.353 163.89 11.977H149.07C149.655 14.629 151.683 16.306 154.569 16.306C156.714 16.306 158.469 15.331 159.561 13.615L162.954 16.462C161.121 19.036 158.196 20.518 154.725 20.518ZM149.187 8.15497H159.366C158.625 5.81497 156.714 4.33297 154.218 4.33297C151.761 4.33297 149.889 5.81497 149.187 8.15497Z" fill="white"/>
<path d="M171.353 20.128V4.83997H165.269V0.47197H182V4.83997H175.955V20.128H171.353Z" fill="white"/>
</svg>
