<svg width="182" height="30" viewBox="0 0 182 30" fill="none" xmlns="http://www.w3.org/2000/svg">
<path d="M0.648438 21.1275V1.47155H11.2174C14.5714 1.47155 17.2234 3.96755 17.2234 7.16555C17.2234 8.76455 16.5604 10.1295 15.4294 11.1045C16.8724 12.0795 17.7694 13.6395 17.7694 15.4725C17.7694 18.6705 15.1174 21.1275 11.7634 21.1275H0.648438ZM5.13344 17.1495H11.2174C12.5434 17.1495 13.3234 16.3695 13.3234 15.1605C13.3234 13.9125 12.5434 13.1325 11.2174 13.1325H5.13344V17.1495ZM5.13344 9.46655H10.6714C11.9974 9.46655 12.7774 8.68655 12.7774 7.43855C12.7774 6.22955 11.9974 5.44955 10.6714 5.44955H5.13344V9.46655Z" fill="white"/>
<path d="M33.6013 21.1275L27.4783 13.4445H26.0743V21.1275H21.4723V1.47155H26.0743V9.11555H27.5173L33.6013 1.47155H39.3733L31.5343 11.2995L39.3733 21.1275H33.6013Z" fill="white"/>
<path d="M41.6088 29.9025L47.4588 17.9295L39.1908 1.47155H44.2608L49.9158 12.8985L55.4928 1.47155H60.4848L46.6008 29.9025H41.6088Z" fill="white"/>
<path d="M71 21.0776C65.384 21.0776 60.7675 16.9155 60.7675 11.2605C60.7675 5.64455 65.4086 1.04255 71.0246 1.04255C75.2366 1.04255 94.5 1.06842 99 1.07758V5.10748C97.3846 5.10748 73.4754 5.04769 71 5.07758C67.88 5.07758 65.3696 8.10155 65.3696 11.2605C65.3696 14.4975 67.919 17.0776 71 17.0776C73.457 17.0776 96.5 17.1495 99 17.1495V21.0776C94.5 21.0776 75.212 21.0776 71 21.0776Z" fill="white"/>
<path d="M110.789 21.5564C105.134 21.5564 100.493 16.9154 100.493 11.2604C100.493 5.64443 105.134 1.04243 110.789 1.04243C116.444 1.04243 121.124 5.68343 121.124 11.2604C121.124 16.9154 116.483 21.5564 110.789 21.5564ZM105.095 11.2604C105.095 14.4974 107.63 17.1494 110.789 17.1494C113.909 17.1494 116.522 14.4974 116.522 11.2994C116.522 8.10143 113.909 5.44943 110.789 5.44943C107.669 5.44943 105.095 8.06243 105.095 11.2604Z" fill="white"/>
<path d="M124.736 21.1274V1.47143H135.305C138.659 1.47143 141.311 3.96743 141.311 7.16543C141.311 8.76443 140.648 10.1294 139.517 11.1044C140.96 12.0794 141.857 13.6394 141.857 15.4724C141.857 18.6704 139.205 21.1274 135.851 21.1274H124.736ZM129.221 17.1494H135.305C136.631 17.1494 137.411 16.3694 137.411 15.1604C137.411 13.9124 136.631 13.1324 135.305 13.1324H129.221V17.1494ZM129.221 9.46643H134.759C136.085 9.46643 136.865 8.68643 136.865 7.43843C136.865 6.22943 136.085 5.44943 134.759 5.44943H129.221V9.46643Z" fill="white"/>
<path d="M154.725 21.5174C148.758 21.5174 144.312 17.1494 144.312 11.2994C144.312 5.48843 148.641 1.04243 154.257 1.04243C159.795 1.04243 164.085 5.56643 164.085 11.1044C164.085 11.6504 164.007 12.3524 163.89 12.9764H149.07C149.655 15.6284 151.683 17.3054 154.569 17.3054C156.714 17.3054 158.469 16.3304 159.561 14.6144L162.954 17.4614C161.121 20.0354 158.196 21.5174 154.725 21.5174ZM149.187 9.15443H159.366C158.625 6.81443 156.714 5.33243 154.218 5.33243C151.761 5.33243 149.889 6.81443 149.187 9.15443Z" fill="white"/>
<path d="M171.353 21.1274V5.83943H165.269V1.47143H182V5.83943H175.955V21.1274H171.353Z" fill="white"/>
<path d="M90.2325 21.0776C84.6165 21.0776 80 16.9155 80 11.2605C80 5.64454 84.641 1.04254 90.257 1.04254C94.469 1.04254 92 0.987965 96.5 0.997128V5.1021C94.8846 5.1021 92.7079 5.04768 90.2325 5.07758C87.1125 5.07758 84.602 8.10154 84.602 11.2605C84.602 14.4975 87.1515 17.0776 90.2325 17.0776C92.6895 17.0776 94 17.1437 96.5 17.1437V21.0776C92 21.0776 94.4445 21.0776 90.2325 21.0776Z" fill="white"/>
</svg>
